<svg class="account-menu__icon" viewBox="0 0 32 32" version="1.1" xmlns="http://www.w3.org/2000/svg" xmlns:xlink="http://www.w3.org/1999/xlink">
    <g stroke="none" stroke-width="1" fill="none" fill-rule="evenodd">
        <g transform="translate(8.000000, 8.000000)" fill="#FFFFFF" fill-rule="nonzero" stroke="#FFFFFF">
            <path d="M8,8 C5.79466667,8 4,6.20567455 4,4 C4,1.79432545 5.79466667,0 8,0 C10.2057778,0 12,1.79432545 12,4 C12,6.20567455 10.2057778,8 8,8 Z M8,0.449029943 C6.03955556,0.449029943 4.44444444,2.04194236 4.44444444,4.00044858 C4.44444444,5.95895481 6.03955556,7.55186722 8,7.55186722 C9.96044444,7.55186722 11.5555556,5.95895481 11.5555556,4.00044858 C11.5555556,2.04194236 9.96044444,0.449029943 8,0.449029943 Z"></path>
            <path d="M0.47213431,17.3 L0,17.1915282 C1.9521958,7.1691494 7.5700636,7.65596263 8.10875004,7.72408504 C8.64116707,7.65386655 14.1042288,7.17753369 16,17.1931002 L15.5278657,17.2984279 C13.642222,7.33840739 8.37351177,8.20618211 8.15070681,8.24653153 L8.11067908,8.25439181 L8.06920457,8.24705555 C7.84013021,8.20408603 2.41275582,7.33631131 0.47213431,17.3 Z"></path>
        </g>
        <circle stroke="#FFFFFF" stroke-width="1.5" cx="16" cy="16" r="13"></circle>
    </g>
</svg>