<svg width="24" height="24" viewBox="0 0 24 24" fill="none" xmlns="http://www.w3.org/2000/svg">
  <path d="M17.25 1.5H6.75C5.75544 1.5 4.80161 1.89509 4.09835 2.59835C3.39509 3.30161 3 4.25544 3 5.25V18.75C3 19.7446 3.39509 20.6984 4.09835 21.4016C4.80161 22.1049 5.75544 22.5 6.75 22.5H17.25C18.2446 22.5 19.1984 22.1049 19.9016 21.4016C20.6049 20.6984 21 19.7446 21 18.75V5.25C21 4.25544 20.6049 3.30161 19.9016 2.59835C19.1984 1.89509 18.2446 1.5 17.25 1.5ZM8.25 4.5H15.75C16.3467 4.5 16.919 4.73705 17.341 5.15901C17.7629 5.58097 18 6.15326 18 6.75V8.25C18 8.84674 17.7629 9.41903 17.341 9.84099C16.919 10.2629 16.3467 10.5 15.75 10.5H8.25C7.65326 10.5 7.08097 10.2629 6.65901 9.84099C6.23705 9.41903 6 8.84674 6 8.25V6.75C6 6.15326 6.23705 5.58097 6.65901 5.15901C7.08097 4.73705 7.65326 4.5 8.25 4.5ZM9 13.5C9 13.8978 8.84196 14.2794 8.56066 14.5607C8.27936 14.842 7.89782 15 7.5 15C7.10218 15 6.72064 14.842 6.43934 14.5607C6.15804 14.2794 6 13.8978 6 13.5C6 13.1022 6.15804 12.7206 6.43934 12.4393C6.72064 12.158 7.10218 12 7.5 12C7.89782 12 8.27936 12.158 8.56066 12.4393C8.84196 12.7206 9 13.1022 9 13.5ZM9 18C9 18.3978 8.84196 18.7794 8.56066 19.0607C8.27936 19.342 7.89782 19.5 7.5 19.5C7.10218 19.5 6.72064 19.342 6.43934 19.0607C6.15804 18.7794 6 18.3978 6 18C6 17.6022 6.15804 17.2206 6.43934 16.9393C6.72064 16.658 7.10218 16.5 7.5 16.5C7.89782 16.5 8.27936 16.658 8.56066 16.9393C8.84196 17.2206 9 17.6022 9 18ZM16.5 15C16.1022 15 15.7206 14.842 15.4393 14.5607C15.158 14.2794 15 13.8978 15 13.5C15 13.1022 15.158 12.7206 15.4393 12.4393C15.7206 12.158 16.1022 12 16.5 12C16.8978 12 17.2794 12.158 17.5607 12.4393C17.842 12.7206 18 13.1022 18 13.5C18 13.8978 17.842 14.2794 17.5607 14.5607C17.2794 14.842 16.8978 15 16.5 15ZM18 18C18 18.3978 17.842 18.7794 17.5607 19.0607C17.2794 19.342 16.8978 19.5 16.5 19.5C16.1022 19.5 15.7206 19.342 15.4393 19.0607C15.158 18.7794 15 18.3978 15 18C15 17.6022 15.158 17.2206 15.4393 16.9393C15.7206 16.658 16.1022 16.5 16.5 16.5C16.8978 16.5 17.2794 16.658 17.5607 16.9393C17.842 17.2206 18 17.6022 18 18ZM12 15C11.6022 15 11.2206 14.842 10.9393 14.5607C10.658 14.2794 10.5 13.8978 10.5 13.5C10.5 13.1022 10.658 12.7206 10.9393 12.4393C11.2206 12.158 11.6022 12 12 12C12.3978 12 12.7794 12.158 13.0607 12.4393C13.342 12.7206 13.5 13.1022 13.5 13.5C13.5 13.8978 13.342 14.2794 13.0607 14.5607C12.7794 14.842 12.3978 15 12 15ZM13.5 18C13.5 18.3978 13.342 18.7794 13.0607 19.0607C12.7794 19.342 12.3978 19.5 12 19.5C11.6022 19.5 11.2206 19.342 10.9393 19.0607C10.658 18.7794 10.5 18.3978 10.5 18C10.5 17.6022 10.658 17.2206 10.9393 16.9393C11.2206 16.658 11.6022 16.5 12 16.5C12.3978 16.5 12.7794 16.658 13.0607 16.9393C13.342 17.2206 13.5 17.6022 13.5 18Z" fill="white"/>
</svg>